<svg width="603" height="182" viewBox="0 0 603 182" xmlns="http://www.w3.org/2000/svg"><title>amazon-logo</title><g fill-rule="nonzero" fill="none"><path d="M374.0064 142.184c-34.9995 25.7974-85.729 39.5613-129.4063 39.5613-61.2426 0-116.3766-22.6514-158.0876-60.325-3.277-2.9625-.3408-6.9999 3.5917-4.6928 45.0143 26.1906 100.6727 41.947 158.1662 41.947 38.7747 0 81.4296-8.0224 120.65-24.6701 5.925-2.5168 10.88 3.88 5.086 8.1796" fill="#F90"/><path d="M388.5568 125.5363c-4.4569-5.7152-29.5726-2.7003-40.8459-1.3632-3.4344.4194-3.9587-2.5693-.8651-4.719 20.0034-14.0785 52.827-10.0149 56.6546-5.2959 3.8276 4.7453-.9963 37.6474-19.7937 53.3513-2.8839 2.412-5.6367 1.1274-4.352-2.0711 4.2209-10.5392 13.6852-34.1606 9.202-39.902" fill="#F90"/><path d="M348.4974 20.066V6.3808c0-2.0711 1.573-3.4606 3.4607-3.4606h61.2687c1.9663 0 3.5393 1.4157 3.5393 3.4606v11.719c-.0262 1.9662-1.6779 4.5354-4.6142 8.599l-31.7486 45.329c11.7976-.2884 24.2506 1.4681 34.947 7.498 2.412 1.3633 3.0675 3.3557 3.251 5.322v14.6028c0 1.9925-2.2022 4.3258-4.5093 3.1198-18.85-9.8838-43.887-10.9587-64.7294.1049-2.1236 1.1535-4.352-1.1536-4.352-3.146V85.6604c0-2.2284.0262-6.0298 2.2546-9.4118l36.7823-52.7483h-32.0108c-1.9663 0-3.5393-1.3895-3.5393-3.4344M124.9988 105.4542h-18.6401c-1.7828-.131-3.1985-1.468-3.3296-3.1722V6.6168c0-1.9139 1.5992-3.4345 3.5917-3.4345h17.3818c1.809.0786 3.2509 1.4682 3.382 3.1985v12.5054h.3408c4.5355-12.086 13.056-17.7226 24.539-17.7226 11.6664 0 18.9547 5.6367 24.1981 17.7226 4.5093-12.086 14.76-17.7226 25.745-17.7226 7.8126 0 16.3593 3.2247 21.5764 10.4606 5.8988 8.0485 4.6928 19.7412 4.6928 29.992l-.0262 60.3774c0 1.9139-1.5992 3.4606-3.5917 3.4606h-18.614c-1.8613-.131-3.3557-1.6254-3.3557-3.4606V51.2902c0-4.0373.367-14.1046-.5243-17.9323-1.3895-6.423-5.558-8.232-10.9587-8.232-4.5093 0-9.2283 3.0149-11.1422 7.8388-1.9138 4.8239-1.7303 12.8986-1.7303 18.3255v50.7034c0 1.9139-1.5992 3.4606-3.5917 3.4606h-18.614c-1.8875-.131-3.3557-1.6254-3.3557-3.4606l-.0262-50.7034c0-10.6702 1.7565-26.3741-11.483-26.3741-13.3968 0-12.8725 15.3106-12.8725 26.3742v50.7033c0 1.9139-1.5992 3.4606-3.5917 3.4606M469.5144 1.1636c27.6588 0 42.6286 23.7525 42.6286 53.9543 0 29.1794-16.5429 52.3288-42.6286 52.3288-27.1607 0-41.947-23.7524-41.947-53.3513 0-29.7823 14.9698-52.9318 41.947-52.9318m.1573 19.5316c-13.7376 0-14.6028 18.7188-14.6028 30.3853 0 11.6927-.1835 36.6512 14.4455 36.6512 14.4455 0 15.1271-20.1346 15.1271-32.404 0-8.0748-.3408-17.7226-2.779-25.378-2.0973-6.659-6.2658-9.2545-12.1908-9.2545M548.0076 105.4542h-18.5615c-1.8614-.131-3.3558-1.6254-3.3558-3.4606l-.0262-95.6915c.1573-1.7565 1.7041-3.1198 3.5917-3.1198h17.277c1.6254.0786 2.9624 1.1798 3.3295 2.6742v14.629h.3408c5.2172-13.0822 12.5316-19.3219 25.4041-19.3219 8.3632 0 16.5166 3.015 21.76 11.2733 4.8763 7.6553 4.8763 20.5278 4.8763 29.7823v60.2201c-.2097 1.6779-1.7565 3.015-3.5917 3.015h-18.6926c-1.704-.1311-3.1198-1.3895-3.3033-3.015V50.4775c0-10.4605 1.206-25.7711-11.6665-25.7711-4.5355 0-8.704 3.0411-10.7751 7.6553-2.6217 5.8464-2.9625 11.6665-2.9625 18.1158v51.5161c-.0262 1.9139-1.6517 3.4606-3.6442 3.4606M299.6555 59.7583v-4.0374c-13.4755 0-27.7113 2.8839-27.7113 18.7712 0 8.0486 4.1685 13.5017 11.3257 13.5017 5.2434 0 9.9362-3.2246 12.8987-8.468 3.6704-6.4494 3.4869-12.5055 3.4869-19.7675m18.7974 45.4338c-1.2322 1.101-3.015 1.1797-4.4044.4457-6.1872-5.1385-7.2883-7.5243-10.6965-12.4268-10.2246 10.4343-17.4604 13.554-30.7261 13.554-15.6777 0-27.8947-9.674-27.8947-29.0482 0-15.127 8.2058-25.4303 19.8723-30.464 10.1197-4.4568 24.2506-5.2433 35.052-6.4755v-2.412c0-4.4306.3408-9.674-2.2547-13.5016-2.2809-3.4344-6.6329-4.8502-10.4605-4.8502-7.1048 0-13.4493 3.6442-14.996 11.1946-.3147 1.678-1.5469 3.3296-3.2247 3.4082l-18.0897-1.94c-1.5205-.3408-3.1984-1.573-2.779-3.9063C252.0195 6.8527 271.8132.246 289.5358.246c9.071 0 20.921 2.412 28.0783 9.2808 9.071 8.468 8.2058 19.7675 8.2058 32.0632v29.0483c0 8.7302 3.618 12.5578 7.0262 17.2769 1.206 1.6779 1.4681 3.6966-.0525 4.955-3.8014 3.1722-10.5653 9.071-14.2882 12.3743l-.0524-.0525M55.2883 59.7583v-4.0374c-13.4755 0-27.7112 2.8839-27.7112 18.7712 0 8.0486 4.1684 13.5017 11.3256 13.5017 5.2434 0 9.9362-3.2246 12.8987-8.468 3.6704-6.4494 3.4869-12.5055 3.4869-19.7675m18.7974 45.4338c-1.2322 1.101-3.015 1.1797-4.4044.4457-6.1872-5.1385-7.2883-7.5243-10.6965-12.4268-10.2246 10.4343-17.4604 13.554-30.7261 13.554C12.581 106.765.364 97.091.364 77.7169c0-15.127 8.2058-25.4303 19.8723-30.464 10.1197-4.4568 24.2506-5.2433 35.052-6.4755v-2.412c0-4.4306.3408-9.674-2.2547-13.5016-2.2809-3.4344-6.6328-4.8502-10.4605-4.8502-7.1048 0-13.4493 3.6442-14.996 11.1946-.3147 1.678-1.5469 3.3296-3.2247 3.4082l-18.0896-1.94c-1.5206-.3408-3.1985-1.573-2.779-3.9063C7.6522 6.8527 27.446.246 45.1686.246c9.071 0 20.921 2.412 28.0782 9.2808 9.071 8.468 8.2059 19.7675 8.2059 32.0632v29.0483c0 8.7302 3.6179 12.5578 7.026 17.2769 1.206 1.6779 1.4682 3.6966-.0524 4.955-3.8014 3.1722-10.5653 9.071-14.2881 12.3743l-.0525-.0525" fill="#221F1F"/></g></svg>